<svg width="24" height="24" fill="none" xmlns="http://www.w3.org/2000/svg"><path d="M12 14.402A2.406 2.406 0 0014.402 12c0-.523-.171-1.006-.455-1.4A2.4 2.4 0 0012 9.598a2.4 2.4 0 00-1.948 1.001 2.391 2.391 0 00-.455 1.4A2.404 2.404 0 0012 14.402zm5.245-5.341V6.747l-.3.002-2.013.006.007 2.314 2.306-.008z" fill="#DEDEDE"/><path d="M12 0C5.383 0 0 5.383 0 12c0 6.616 5.383 12 12 12 6.616 0 12-5.384 12-12 0-6.617-5.383-12-12-12zm6.825 10.6v5.587a2.64 2.64 0 01-2.638 2.639H7.813a2.64 2.64 0 01-2.638-2.639V7.814a2.64 2.64 0 012.638-2.638h8.373a2.64 2.64 0 012.639 2.638V10.6z" fill="#DEDEDE"/><path d="M15.733 12A3.737 3.737 0 0112 15.733 3.737 3.737 0 018.267 12c0-.495.1-.968.275-1.4H6.505v5.587c0 .723.586 1.307 1.308 1.307h8.373c.72 0 1.308-.584 1.308-1.307V10.6h-2.038c.177.432.277.905.277 1.4z" fill="#DEDEDE"/></svg>