<svg width="21" height="17" fill="none" xmlns="http://www.w3.org/2000/svg"><path d="M18.522 16.679c.45 0 .839-.149 1.17-.442l-5.666-5.666-.392.282a26.54 26.54 0 01-1.033.73 6.365 6.365 0 01-1.055.536c-.439.183-.848.274-1.227.274h-.022c-.38 0-.79-.091-1.228-.274a6.307 6.307 0 01-1.055-.535 26.263 26.263 0 01-1.032-.731l-.392-.284-5.667 5.668c.331.293.72.442 1.17.442h16.429zM1.435 7.002a5.917 5.917 0 01-1.127-.97v8.62l4.994-4.994c-1-.697-2.287-1.582-3.867-2.656zm17.757 0a328.19 328.19 0 00-3.877 2.658l4.993 4.993V6.03a6.16 6.16 0 01-1.116.971z" fill="#828282"/><path d="M18.522.964H2.094c-.574 0-1.014.194-1.323.58-.309.387-.463.871-.463 1.451 0 .47.205.977.614 1.524.409.547.844.976 1.306 1.289.252.179 1.015.709 2.288 1.59A737.828 737.828 0 017.44 9.435l.166.119.308.222c.242.175.443.316.603.424.16.108.353.229.58.363.227.133.441.234.642.301.2.067.387.1.558.1h.022c.171 0 .357-.033.558-.1.201-.067.415-.167.642-.301.227-.134.42-.255.58-.363.16-.108.361-.25.603-.424a76.996 76.996 0 01.475-.34c.242-.17.62-.432 1.129-.786L18.4 5.808c.543-.38.997-.837 1.361-1.373.364-.535.547-1.097.547-1.685 0-.491-.177-.911-.53-1.261a1.726 1.726 0 00-1.256-.525z" fill="#828282"/></svg>