<svg width="21" height="21" fill="none" xmlns="http://www.w3.org/2000/svg"><path d="M19.916 18.14c-.005.005-.005 0 0 0-.2.215-.404.41-.624.625-.333.317-.671.65-.989 1.024-.517.553-1.127.814-1.926.814-.077 0-.159 0-.235-.005-1.522-.097-2.935-.691-3.995-1.198-2.9-1.403-5.445-3.396-7.56-5.921C2.84 11.374 1.672 9.428.899 7.338.422 6.062.249 5.068.325 4.13a2.346 2.346 0 01.707-1.52L2.779.863C3.029.628 3.296.5 3.557.5c.323 0 .584.195.748.359l.015.015c.313.292.61.594.922.917.159.164.323.328.487.497l1.398 1.398c.543.543.543 1.045 0 1.588-.148.148-.292.297-.44.44-.43.44-.84.85-1.286 1.25-.01.01-.02.015-.026.025-.44.441-.358.871-.266 1.163l.015.046c.364.881.876 1.711 1.655 2.7l.005.005C8.198 12.644 9.688 14 11.332 15.04c.21.133.425.24.63.343.184.092.359.18.507.272.02.01.041.025.062.036.174.087.338.128.507.128.425 0 .691-.267.778-.354l1.752-1.751c.174-.175.45-.385.773-.385.318 0 .58.2.738.374a.5.5 0 01.01.01l2.822 2.823c.528.522.528 1.06.005 1.603z" fill="#828282"/></svg>