<svg width="24" height="24" fill="none" xmlns="http://www.w3.org/2000/svg"><path d="M12 0C5.383 0 0 5.383 0 12c0 6.616 5.383 12 12 12 6.616 0 12-5.384 12-12 0-6.617-5.383-12-12-12zm5.353 9.254c.006.118.008.238.008.358 0 3.65-2.777 7.857-7.859 7.857a7.812 7.812 0 01-4.233-1.24 5.577 5.577 0 004.089-1.143 2.765 2.765 0 01-2.58-1.919 2.784 2.784 0 001.247-.046 2.762 2.762 0 01-2.215-2.743c.372.206.798.33 1.25.345a2.76 2.76 0 01-.854-3.688 7.843 7.843 0 005.692 2.887 2.762 2.762 0 014.707-2.52 5.513 5.513 0 001.755-.67 2.774 2.774 0 01-1.216 1.528 5.491 5.491 0 001.586-.434 5.556 5.556 0 01-1.377 1.428z" fill="#DEDEDE"/></svg>